<svg width="229" height="89" viewBox="0 0 229 89" fill="none" xmlns="http://www.w3.org/2000/svg">
<path d="M122.218 30.9958L112.453 57H107.514L97.7109 30.9958H102.276L109.983 52.6223L117.729 30.9958H122.218ZM124.364 46.5983C124.364 44.5279 124.788 42.6946 125.636 41.0981C126.509 39.5017 127.681 38.267 129.153 37.3939C130.65 36.4959 132.296 36.047 134.092 36.047C135.713 36.047 137.123 36.3712 138.32 37.0198C139.542 37.6434 140.515 38.4291 141.238 39.377V36.3837H145.541V57H141.238V53.9319C140.515 54.9047 139.53 55.7154 138.283 56.3639C137.035 57.0125 135.614 57.3367 134.017 57.3367C132.246 57.3367 130.625 56.8878 129.153 55.9898C127.681 55.0668 126.509 53.7947 125.636 52.1733C124.788 50.527 124.364 48.6687 124.364 46.5983ZM141.238 46.6731C141.238 45.2513 140.939 44.0166 140.34 42.9689C139.767 41.9213 139.006 41.1231 138.058 40.5743C137.11 40.0255 136.088 39.7512 134.99 39.7512C133.892 39.7512 132.87 40.0255 131.922 40.5743C130.974 41.0981 130.201 41.8839 129.602 42.9315C129.028 43.9542 128.741 45.1765 128.741 46.5983C128.741 48.0201 129.028 49.2673 129.602 50.3399C130.201 51.4125 130.974 52.2357 131.922 52.8094C132.895 53.3582 133.917 53.6325 134.99 53.6325C136.088 53.6325 137.11 53.3582 138.058 52.8094C139.006 52.2606 139.767 51.4624 140.34 50.4148C140.939 49.3422 141.238 48.095 141.238 46.6731ZM169.814 36.3837V57H165.549V54.568C164.876 55.416 163.99 56.0895 162.892 56.5884C161.82 57.0624 160.672 57.2993 159.45 57.2993C157.829 57.2993 156.37 56.9626 155.072 56.2891C153.8 55.6156 152.79 54.6178 152.042 53.2958C151.318 51.9738 150.957 50.3773 150.957 48.5065V36.3837H155.185V47.8705C155.185 49.7163 155.646 51.1381 156.569 52.1359C157.492 53.1087 158.752 53.5951 160.348 53.5951C161.945 53.5951 163.204 53.1087 164.127 52.1359C165.075 51.1381 165.549 49.7163 165.549 47.8705V36.3837H169.814ZM179.708 29.312V57H175.442V29.312H179.708ZM190.284 39.8634V51.2753C190.284 52.0486 190.459 52.6098 190.808 52.9591C191.182 53.2833 191.806 53.4455 192.679 53.4455H195.298V57H191.931C190.01 57 188.538 56.551 187.516 55.653C186.493 54.755 185.981 53.2958 185.981 51.2753V39.8634H183.549V36.3837H185.981V31.2577H190.284V36.3837H195.298V39.8634H190.284ZM201.4 33.6523C200.626 33.6523 199.978 33.3904 199.454 32.8666C198.93 32.3428 198.668 31.6942 198.668 30.9209C198.668 30.1477 198.93 29.4991 199.454 28.9753C199.978 28.4515 200.626 28.1896 201.4 28.1896C202.148 28.1896 202.784 28.4515 203.308 28.9753C203.832 29.4991 204.093 30.1477 204.093 30.9209C204.093 31.6942 203.832 32.3428 203.308 32.8666C202.784 33.3904 202.148 33.6523 201.4 33.6523ZM203.495 36.3837V57H199.229V36.3837H203.495ZM207.673 46.6731C207.673 44.5529 208.097 42.6946 208.945 41.0981C209.818 39.4768 211.016 38.2296 212.537 37.3565C214.059 36.4835 215.805 36.047 217.776 36.047C220.27 36.047 222.328 36.6456 223.949 37.8429C225.596 39.0153 226.706 40.699 227.279 42.8941H222.677C222.303 41.8714 221.704 41.0732 220.881 40.4995C220.058 39.9258 219.023 39.6389 217.776 39.6389C216.029 39.6389 214.633 40.2625 213.585 41.5097C212.562 42.732 212.051 44.4531 212.051 46.6731C212.051 48.8932 212.562 50.6268 213.585 51.874C214.633 53.1212 216.029 53.7448 217.776 53.7448C220.245 53.7448 221.879 52.6597 222.677 50.4896H227.279C226.681 52.5849 225.558 54.2561 223.912 55.5034C222.265 56.7256 220.22 57.3367 217.776 57.3367C215.805 57.3367 214.059 56.9002 212.537 56.0272C211.016 55.1292 209.818 53.882 208.945 52.2856C208.097 50.6642 207.673 48.7934 207.673 46.6731Z" fill="white"/>
<circle cx="44.1429" cy="44.1429" r="38.1429" fill="white"/>
<path d="M31 29L45 60L59 29" stroke="#FB8E91" stroke-width="5.88" stroke-linecap="round"/>
<path d="M47.0299 41.0867C47.0299 42.1599 46.1599 43.0299 45.0867 43.0299C44.0136 43.0299 43.1436 42.1599 43.1436 41.0867C43.1436 40.0136 44.0136 39.1436 45.0867 39.1436C46.1599 39.1436 47.0299 40.0136 47.0299 41.0867Z" fill="#FB8E91" stroke="#FB8E91" stroke-width="0.287221"/>
<path d="M44.1436 41.1436H45.8564V46.8564H44.1436V41.1436Z" fill="#FB8E91" stroke="#FB8E91" stroke-width="0.287221"/>
</svg>
